<svg width="840" height="378" viewBox="0 0 840 378" fill="none" xmlns="http://www.w3.org/2000/svg">
<rect width="840" height="378" rx="63" fill="url(#paint0_linear_143_545)"/>
<path d="M262.333 102.6H240.667V81H219V102.6H154V81H132.333V102.6H110.667C98.7175 102.6 89 112.288 89 124.2V275.4C89 287.312 98.7175 297 110.667 297H262.333C274.282 297 284 287.312 284 275.4V124.2C284 112.288 274.282 102.6 262.333 102.6ZM212.63 264.6L186.099 250.69L159.568 264.6L164.638 235.138L143.167 214.294L172.828 209.995L186.099 183.211L199.37 209.995L229.032 214.294L207.571 235.148L212.63 264.6ZM262.333 156.6H110.667V135H262.333V156.6Z" fill="white"/>
<path d="M388.4 118.22V109.54H405.9V98.9H388.4V90.78H407.65V80H377.2V129H408V118.22H388.4ZM434.479 104.08V94H427.269V84.2L416.769 87.35V94H411.169V104.08H416.769V116.47C416.769 126.27 420.759 130.4 434.479 129V119.48C429.859 119.76 427.269 119.48 427.269 116.47V104.08H434.479ZM474.024 129L460.934 111.5L473.674 94H461.424L450.924 109.33V80H440.424V129H450.924V113.53L462.124 129H474.024ZM483.135 90.92C486.565 90.92 489.435 88.05 489.435 84.62C489.435 81.19 486.565 78.32 483.135 78.32C479.705 78.32 476.835 81.19 476.835 84.62C476.835 88.05 479.705 90.92 483.135 90.92ZM477.885 129H488.385V94H477.885V129ZM516.579 93.02C511.959 93.02 508.459 94.7 506.569 97.29V94H496.069V129H506.569V109.89C506.569 104.92 509.229 102.68 513.079 102.68C516.439 102.68 519.169 104.71 519.169 109.05V129H529.669V107.51C529.669 98.06 523.649 93.02 516.579 93.02ZM536.879 129H547.379V77.9H536.879V129ZM560.313 90.92C563.743 90.92 566.613 88.05 566.613 84.62C566.613 81.19 563.743 78.32 560.313 78.32C556.883 78.32 554.013 81.19 554.013 84.62C554.013 88.05 556.883 90.92 560.313 90.92ZM555.063 129H565.563V94H555.063V129ZM606.846 129L593.756 111.5L606.496 94H594.246L583.746 109.33V80H573.246V129H583.746V113.53L594.946 129H606.846Z" fill="white"/>
<rect x="373" y="179" width="373" height="48" fill="white"/>
<rect x="373" y="258" width="292" height="48" fill="white"/>
<defs>
<linearGradient id="paint0_linear_143_545" x1="-0.514906" y1="13.1219" x2="289.306" y2="634.416" gradientUnits="userSpaceOnUse">
<stop stop-color="#00CA4E"/>
<stop offset="1" stop-color="#00CA75"/>
</linearGradient>
</defs>
</svg>
