<svg xmlns="http://www.w3.org/2000/svg" width="1260" height="1260" fill="none" viewBox="0 0 1260 1260"><rect width="1260" height="1260" fill="url(#paint0_linear_147_596)" rx="127"/><path fill="#fff" stroke="#000" stroke-width="27" d="M268.5 302C268.5 265.273 298.273 235.5 335 235.5H925C961.727 235.5 991.5 265.273 991.5 302V1246.5H268.5V302Z"/><rect width="696" height="30" x="282" y="1230" fill="#fff"/><path fill="#000" d="M471 244H788L783.639 264.934C780.938 277.898 779.588 284.38 774.902 288.19C770.216 292 763.595 292 750.353 292H508.647C495.405 292 488.784 292 484.098 288.19C479.412 284.38 478.062 277.898 475.361 264.934L471 244Z"/><rect width="529" height="97" x="366" y="630" fill="#FF0049" rx="18"/><rect width="529" height="97" x="366" y="780" fill="#FF0049" rx="18"/><rect width="529" height="97" x="366" y="930" fill="#FF0049" rx="18"/><path fill="#FF0049" d="M654.256 1106.29C652.517 1107.06 650.648 1107.58 648.683 1107.81C650.71 1106.6 652.227 1104.69 652.95 1102.44C651.046 1103.57 648.961 1104.37 646.788 1104.8C645.326 1103.24 643.39 1102.2 641.28 1101.85C639.17 1101.51 637.004 1101.86 635.119 1102.87C633.234 1103.88 631.735 1105.49 630.854 1107.43C629.974 1109.38 629.762 1111.57 630.25 1113.65C626.391 1113.46 622.616 1112.45 619.17 1110.71C615.723 1108.96 612.683 1106.51 610.246 1103.51C609.413 1104.95 608.933 1106.61 608.933 1108.39C608.932 1109.99 609.326 1111.56 610.079 1112.97C610.832 1114.38 611.921 1115.58 613.25 1116.47C611.709 1116.42 610.202 1116 608.854 1115.25V1115.38C608.854 1117.62 609.629 1119.79 611.048 1121.52C612.467 1123.26 614.443 1124.45 616.64 1124.89C615.21 1125.28 613.711 1125.34 612.256 1125.06C612.876 1126.99 614.083 1128.68 615.709 1129.88C617.335 1131.09 619.298 1131.76 621.323 1131.8C617.885 1134.5 613.639 1135.96 609.269 1135.95C608.495 1135.95 607.721 1135.91 606.952 1135.82C611.388 1138.67 616.553 1140.18 621.827 1140.18C639.681 1140.18 649.442 1125.39 649.442 1112.57C649.442 1112.15 649.431 1111.73 649.413 1111.31C651.311 1109.94 652.95 1108.24 654.252 1106.29L654.256 1106.29Z"/><g clip-path="url(#clip0_147_596)"><path fill="#FF0049" d="M712.304 1101C708.258 1101 705 1104.26 705 1108.3V1133.7C705 1137.74 708.258 1141 712.304 1141H726.066V1125.36H721.931V1119.73H726.066V1114.92C726.066 1111.14 728.509 1107.67 734.138 1107.67C736.416 1107.67 738.101 1107.89 738.101 1107.89L737.969 1113.15C737.969 1113.15 736.25 1113.13 734.375 1113.13C732.345 1113.13 732.02 1114.07 732.02 1115.62V1119.73H738.13L737.864 1125.36H732.02V1141H737.696C741.742 1141 745 1137.74 745 1133.7V1108.3C745 1104.26 741.742 1101 737.696 1101H712.304L712.304 1101Z"/></g><path fill="#FF0049" d="M535 1114.49C531.416 1114.49 528.491 1117.42 528.491 1121C528.491 1124.58 531.416 1127.51 535 1127.51C538.584 1127.51 541.509 1124.58 541.509 1121C541.509 1117.42 538.584 1114.49 535 1114.49ZM554.522 1121C554.522 1118.3 554.546 1115.63 554.395 1112.94C554.243 1109.82 553.53 1107.04 551.245 1104.76C548.955 1102.47 546.187 1101.76 543.062 1101.61C540.366 1101.46 537.695 1101.48 535.005 1101.48C532.31 1101.48 529.639 1101.46 526.948 1101.61C523.823 1101.76 521.05 1102.47 518.765 1104.76C516.475 1107.05 515.767 1109.82 515.615 1112.94C515.464 1115.64 515.488 1118.31 515.488 1121C515.488 1123.69 515.464 1126.37 515.615 1129.06C515.767 1132.18 516.479 1134.96 518.765 1137.24C521.055 1139.53 523.823 1140.24 526.948 1140.39C529.644 1140.54 532.314 1140.52 535.005 1140.52C537.7 1140.52 540.371 1140.54 543.062 1140.39C546.187 1140.24 548.96 1139.53 551.245 1137.24C553.535 1134.95 554.243 1132.18 554.395 1129.06C554.551 1126.37 554.522 1123.7 554.522 1121ZM535 1131.01C529.458 1131.01 524.985 1126.54 524.985 1121C524.985 1115.46 529.458 1110.99 535 1110.99C540.542 1110.99 545.015 1115.46 545.015 1121C545.015 1126.54 540.542 1131.01 535 1131.01ZM545.425 1112.91C544.131 1112.91 543.086 1111.87 543.086 1110.58C543.086 1109.28 544.131 1108.24 545.425 1108.24C546.719 1108.24 547.764 1109.28 547.764 1110.58C547.764 1110.88 547.704 1111.19 547.586 1111.47C547.469 1111.75 547.297 1112.01 547.08 1112.23C546.862 1112.45 546.604 1112.62 546.32 1112.74C546.036 1112.85 545.732 1112.91 545.425 1112.91Z"/><circle cx="630.5" cy="460.5" r="88.5" fill="#FF0049"/><defs><linearGradient id="paint0_linear_147_596" x1="-.772" x2="1259.23" y1="43.74" y2="1259.23" gradientUnits="userSpaceOnUse"><stop stop-color="#00CA4E"/><stop offset="1" stop-color="#00CA75"/></linearGradient><clipPath id="clip0_147_596"><rect width="40" height="40" fill="#fff" transform="translate(705 1101)"/></clipPath></defs></svg>