<svg xmlns="http://www.w3.org/2000/svg" width="1260" height="1260" fill="none" viewBox="0 0 1260 1260"><rect width="1260" height="1260" fill="url(#paint0_linear_148_766)" rx="127"/><g clip-path="url(#clip0_148_766)"><path fill="url(#paint1_linear_148_766)" d="M327.444 583.056C304.518 583.056 282.53 590.899 266.319 604.86C250.108 618.821 241 637.756 241 657.5L241 992.5C241 1012.24 250.108 1031.18 266.319 1045.14C282.53 1059.1 304.518 1066.94 327.444 1066.94H932.556C955.482 1066.94 977.469 1059.1 993.681 1045.14C1009.89 1031.18 1019 1012.24 1019 992.5V657.5C1019 657.5 1019 583.056 932.556 583.056H327.444Z"/><path fill="#000" d="M241 676.111H1019V769.167H241V676.111Z"/><path fill="#F4F7F9" d="M327.444 843.611H932.555V955.278H327.444V843.611Z"/><path fill="#8899A6" d="M651.611 936.667C614.807 936.667 601.019 914.147 598.253 903.148C586.432 903.911 574.913 908.787 559.245 917.367C542.713 926.412 523.976 936.667 500.333 936.667C474.465 936.667 458.753 924.104 457.111 899.444C457.046 898.402 457.932 895.945 457.565 895.945C417.411 895.945 388.366 928.72 388.085 929.055C386.412 931.029 384.303 932.7 381.878 933.971C379.453 935.242 376.761 936.087 373.955 936.459C371.15 936.831 368.287 936.721 365.531 936.138C362.774 935.554 360.179 934.506 357.894 933.056C355.605 931.611 353.669 929.791 352.197 927.701C350.724 925.611 349.744 923.292 349.313 920.876C348.881 918.46 349.007 915.994 349.682 913.62C350.357 911.245 351.569 909.009 353.248 907.038C354.912 905.084 394.655 862.222 457.111 862.222C498.972 862.222 501.371 887.812 502.019 897.36L502.17 899.389C512.673 898.756 523.587 892.8 536.1 885.933C556.868 874.58 582.628 860.417 617.141 868.029C635.965 872.179 638.904 887.217 640.027 892.893C640.308 894.308 640.719 896.429 641.086 897.099C641.238 897.099 644.242 898.793 653.556 899.519C671.277 900.915 690.749 894.326 711.366 887.366C732.717 880.145 754.804 872.7 778.598 872.7C851.838 872.7 881.618 903.129 884.773 906.591C886.588 908.51 887.94 910.721 888.751 913.096C889.561 915.47 889.814 917.96 889.493 920.42C889.173 922.879 888.286 925.259 886.884 927.419C885.483 929.58 883.595 931.478 881.332 933.003C879.068 934.528 876.474 935.649 873.702 936.3C870.929 936.951 868.033 937.119 865.184 936.795C862.335 936.47 859.59 935.66 857.109 934.411C854.628 933.162 852.462 931.499 850.736 929.52C850.217 929.017 830.637 909.904 778.62 909.904C762.995 909.904 745.598 915.766 727.163 921.982C705.358 929.352 674.562 936.667 651.611 936.667V936.667Z"/></g><g filter="url(#filter0_d_148_766)"><rect width="469" height="602" x="395" y="240" fill="#fff" rx="51"/></g><path fill="#00CA4E" fill-rule="evenodd" d="M547 407.5C547 385.62 555.692 364.635 571.164 349.164C586.635 333.692 607.62 325 629.5 325C651.38 325 672.365 333.692 687.836 349.164C703.308 364.635 712 385.62 712 407.5C712 429.38 703.308 450.365 687.836 465.836C672.365 481.308 651.38 490 629.5 490C607.62 490 586.635 481.308 571.164 465.836C555.692 450.365 547 429.38 547 407.5V407.5ZM624.792 442.81L672.29 383.432L663.71 376.568L623.208 427.179L594.52 403.276L587.48 411.724L624.792 442.821V442.81Z" clip-rule="evenodd"/><path fill="#000" d="M563.95 643.22H559.96L560.45 636.5H578.3V626H549.95L547.92 654.14H563.25C567.52 654.14 569.55 656.59 569.55 659.6C569.55 662.61 567.52 665.06 562.9 665.06C558.28 665.06 556.18 663.1 555.06 659.88L545.4 665.48C548.41 672.69 555.13 675.98 562.9 675.98C572.35 675.98 580.75 670.38 580.75 659.6C580.75 648.82 573.05 643.22 563.95 643.22ZM604.195 675.98C616.865 675.98 624.145 665.62 624.145 650.5C624.145 635.38 616.865 625.02 604.195 625.02C591.525 625.02 584.245 635.38 584.245 650.5C584.245 665.62 591.525 675.98 604.195 675.98ZM604.195 665.06C598.315 665.06 595.445 659.95 595.445 650.5C595.445 641.05 598.315 635.94 604.195 635.94C610.075 635.94 612.945 641.05 612.945 650.5C612.945 659.95 610.075 665.06 604.195 665.06ZM680.836 626H644.436V636.78H657.036V675H668.236V636.78H680.836V626ZM696.939 664.22V626H685.739V675H714.439V664.22H696.939Z"/><path fill="#000" d="M477.35 705V720.75H457V705H454.35V740H457V723.25H477.35V740H480V705H477.35ZM499.426 714.45C491.776 714.45 486.476 720.15 486.476 727.5C486.476 735.05 491.926 740.55 499.626 740.55C504.576 740.55 508.476 738.3 510.526 734.9L508.326 733.6C506.876 736.25 503.776 738.15 499.676 738.15C493.976 738.15 489.676 734.45 489.076 728.8H511.726C511.726 728.4 511.776 728 511.776 727.6C511.776 720.75 507.026 714.45 499.426 714.45ZM499.426 716.85C504.326 716.85 508.626 720.25 509.176 726.35H489.076C489.576 720.8 493.726 716.85 499.426 716.85ZM518.343 721.55C518.343 718.55 521.093 716.85 524.343 716.85C527.093 716.85 529.693 718.05 530.743 720.65L532.843 719.45C531.493 716.4 528.393 714.45 524.343 714.45C519.243 714.45 515.843 717.6 515.843 721.55C515.843 730.55 530.993 726.65 530.993 733.45C530.993 736.6 528.043 738.15 524.543 738.15C520.793 738.15 518.093 736.45 517.193 733.75L515.043 735C516.243 738.2 519.543 740.55 524.543 740.55C529.893 740.55 533.493 737.55 533.493 733.45C533.493 724.3 518.343 728.25 518.343 721.55ZM560.811 715V720.65C558.711 716.9 554.861 714.45 550.061 714.45C542.961 714.45 537.111 720.1 537.111 727.5C537.111 734.9 542.961 740.55 550.061 740.55C554.861 740.55 558.711 738.1 560.811 734.35V740H563.361V715H560.811ZM550.261 738.15C544.311 738.15 539.661 733.45 539.661 727.5C539.661 721.55 544.311 716.85 550.261 716.85C556.211 716.85 560.811 721.55 560.811 727.5C560.811 733.45 556.211 738.15 550.261 738.15ZM584.288 714.45C579.438 714.45 575.588 716.95 573.538 720.8V705H571.038V740H573.538V734.2C575.588 738.05 579.438 740.55 584.288 740.55C591.438 740.55 597.238 734.9 597.238 727.5C597.238 720.1 591.438 714.45 584.288 714.45ZM584.138 738.15C578.188 738.15 573.538 733.45 573.538 727.5C573.538 721.55 578.188 716.85 584.138 716.85C590.088 716.85 594.737 721.55 594.737 727.5C594.737 733.45 590.088 738.15 584.138 738.15ZM603.264 740H605.764V715H603.264V740ZM624.919 714.45C621.069 714.45 617.869 716.05 615.969 719.75V715H613.469V740H615.969V726.8C615.969 720.05 619.819 716.85 624.719 716.85C629.419 716.85 632.069 719.85 632.069 724.45V740H634.619V724.45C634.619 718.4 630.869 714.45 624.919 714.45ZM663.692 715V720.65C661.592 716.9 657.742 714.45 652.942 714.45C645.842 714.45 639.992 720.1 639.992 727.5C639.992 734.9 645.842 740.55 652.942 740.55C657.742 740.55 661.592 738.1 663.692 734.35V740H666.242V715H663.692ZM653.142 738.15C647.192 738.15 642.542 733.45 642.542 727.5C642.542 721.55 647.192 716.85 653.142 716.85C659.092 716.85 663.692 721.55 663.692 727.5C663.692 733.45 659.092 738.15 653.142 738.15ZM709.448 715V720.8C707.398 716.95 703.548 714.45 698.698 714.45C691.548 714.45 685.748 720.1 685.748 727.5C685.748 734.9 691.548 740.55 698.698 740.55C703.548 740.55 707.398 738.05 709.448 734.2V738.8C709.448 744.5 705.748 748.15 699.498 748.15C693.998 748.15 691.198 745.95 689.898 743.3L687.698 744.55C689.498 748.2 693.648 750.55 699.498 750.55C706.398 750.55 711.948 746.3 711.948 738.8V715H709.448ZM698.848 738.15C692.898 738.15 688.248 733.45 688.248 727.5C688.248 721.55 692.898 716.85 698.848 716.85C704.798 716.85 709.448 721.55 709.448 727.5C709.448 733.45 704.798 738.15 698.848 738.15ZM730.92 714.45C723.27 714.45 717.97 720.15 717.97 727.5C717.97 735.05 723.42 740.55 731.12 740.55C736.07 740.55 739.97 738.3 742.02 734.9L739.82 733.6C738.37 736.25 735.27 738.15 731.17 738.15C725.47 738.15 721.17 734.45 720.57 728.8H743.22C743.22 728.4 743.27 728 743.27 727.6C743.27 720.75 738.52 714.45 730.92 714.45ZM730.92 716.85C735.82 716.85 740.12 720.25 740.67 726.35H720.57C721.07 720.8 725.22 716.85 730.92 716.85ZM749.114 740H751.614V703.5H749.114V740ZM781.369 705V720.8C779.319 716.95 775.469 714.45 770.619 714.45C763.469 714.45 757.669 720.1 757.669 727.5C757.669 734.9 763.469 740.55 770.619 740.55C775.469 740.55 779.319 738.05 781.369 734.2V740H783.869V705H781.369ZM770.769 738.15C764.819 738.15 760.169 733.45 760.169 727.5C760.169 721.55 764.819 716.85 770.769 716.85C776.719 716.85 781.369 721.55 781.369 727.5C781.369 733.45 776.719 738.15 770.769 738.15ZM792.795 708.95C793.895 708.95 794.795 708.05 794.795 706.95C794.795 705.9 793.895 705 792.795 705C791.695 705 790.795 705.9 790.795 706.95C790.795 708.05 791.695 708.95 792.795 708.95ZM791.545 740H794.045V715H791.545V740ZM802.4 731H804.4L804.9 715V705H801.9V715L802.4 731ZM803.4 740.5C804.65 740.5 805.65 739.5 805.65 738.25C805.65 737 804.65 736 803.4 736C802.15 736 801.15 737 801.15 738.25C801.15 739.5 802.15 740.5 803.4 740.5Z"/><defs><filter id="filter0_d_148_766" width="519" height="652" x="370" y="223" color-interpolation-filters="sRGB" filterUnits="userSpaceOnUse"><feFlood flood-opacity="0" result="BackgroundImageFix"/><feColorMatrix in="SourceAlpha" result="hardAlpha" type="matrix" values="0 0 0 0 0 0 0 0 0 0 0 0 0 0 0 0 0 0 127 0"/><feOffset dy="8"/><feGaussianBlur stdDeviation="12.5"/><feComposite in2="hardAlpha" operator="out"/><feColorMatrix type="matrix" values="0 0 0 0 0 0 0 0 0 0 0 0 0 0 0 0 0 0 0.25 0"/><feBlend in2="BackgroundImageFix" mode="normal" result="effect1_dropShadow_148_766"/><feBlend in="SourceGraphic" in2="effect1_dropShadow_148_766" mode="normal" result="shape"/></filter><linearGradient id="paint0_linear_148_766" x1="24.615" x2="1388.98" y1="85" y2="278.849" gradientUnits="userSpaceOnUse"><stop stop-color="#FF0049"/><stop offset="1" stop-color="#FF007A"/></linearGradient><linearGradient id="paint1_linear_148_766" x1="260.3" x2="648.95" y1="580.394" y2="1267.29" gradientUnits="userSpaceOnUse"><stop stop-color="#FFBD44"/><stop offset="1" stop-color="#FFE144"/></linearGradient><clipPath id="clip0_148_766"><rect width="778" height="670" fill="#fff" transform="translate(241 490)"/></clipPath></defs></svg>