<svg width="1260" height="1260" viewBox="0 0 1260 1260" fill="none" xmlns="http://www.w3.org/2000/svg">
<rect width="1260" height="1260" rx="127" fill="url(#paint0_linear_147_641)"/>
<rect x="153" y="153" width="954" height="954" rx="54" fill="white"/>
<path d="M1114.5 850C1114.5 850 1020 678.5 939.5 678.5C859 678.5 805.5 895 719 895C632.5 895 499 570.5 396.5 570.5C294 570.5 153 727.5 153 727.5" stroke="url(#paint1_linear_147_641)" stroke-width="11" stroke-linecap="round"/>
<path d="M936.637 677C1016.84 677 1111 848.5 1111 848.5V1107H153V726C153 726 293.487 569 395.614 569C497.741 569 630.755 893.5 716.94 893.5C803.125 893.5 856.43 677 936.637 677Z" fill="url(#paint2_linear_147_641)"/>
<path d="M328.091 732.149C247.549 732.149 153 881.653 153 881.653V1107H1115V774.864C1115 774.864 973.927 638 871.373 638C768.82 638 635.251 920.882 548.706 920.882C462.161 920.882 408.633 732.149 328.091 732.149Z" fill="url(#paint3_linear_147_641)"/>
<path d="M150 882.755C150 882.755 244.451 733.188 324.909 733.188C405.367 733.188 458.839 922 545.294 922C631.749 922 765.18 639 867.627 639C970.073 639 1111 775.921 1111 775.921" stroke="#FF0049" stroke-width="11" stroke-linecap="round"/>
<rect x="146" y="146" width="968" height="968" rx="61" stroke="url(#paint4_linear_147_641)" stroke-width="14"/>
<rect x="241" y="242" width="89" height="26" rx="5" fill="url(#paint5_linear_147_641)"/>
<path d="M368.59 253.3H358.06V257.5H363.67C362.92 259.51 361.09 260.74 358.3 260.74C354.22 260.74 351.7 258.13 351.7 254.56C351.7 250.87 354.34 248.26 357.88 248.26C360.25 248.26 362.14 249.34 363.01 250.72L367.09 248.38C365.32 245.56 361.93 243.58 357.91 243.58C351.73 243.58 346.9 248.44 346.9 254.53C346.9 260.56 351.64 265.42 358.24 265.42C364.12 265.42 368.59 261.52 368.59 255.1V253.3ZM375.496 248.5C376.726 248.5 377.746 247.48 377.746 246.25C377.746 245.02 376.726 244 375.496 244C374.266 244 373.246 245.02 373.246 246.25C373.246 247.48 374.266 248.5 375.496 248.5ZM381.196 248.5C382.426 248.5 383.446 247.48 383.446 246.25C383.446 245.02 382.426 244 381.196 244C379.966 244 378.946 245.02 378.946 246.25C378.946 247.48 379.966 248.5 381.196 248.5ZM378.346 265.42C382.756 265.42 386.296 261.97 386.296 257.5C386.296 253.03 382.756 249.58 378.346 249.58C373.936 249.58 370.396 253.03 370.396 257.5C370.396 261.97 373.936 265.42 378.346 265.42ZM378.346 261.04C376.396 261.04 374.896 259.63 374.896 257.5C374.896 255.37 376.396 253.96 378.346 253.96C380.296 253.96 381.796 255.37 381.796 257.5C381.796 259.63 380.296 261.04 378.346 261.04ZM393.341 252.67V250H388.841V265H393.341V258.22C393.341 255.25 395.981 254.5 397.841 254.8V249.7C395.951 249.7 393.941 250.66 393.341 252.67ZM404.085 248.8C405.315 248.8 406.335 247.78 406.335 246.55C406.335 245.32 405.315 244.3 404.085 244.3C402.855 244.3 401.835 245.32 401.835 246.55C401.835 247.78 402.855 248.8 404.085 248.8ZM409.785 248.8C411.015 248.8 412.035 247.78 412.035 246.55C412.035 245.32 411.015 244.3 409.785 244.3C408.555 244.3 407.535 245.32 407.535 246.55C407.535 247.78 408.555 248.8 409.785 248.8ZM409.635 250V258.19C409.635 260.32 408.495 261.28 406.845 261.28C405.405 261.28 404.235 260.41 404.235 258.55V250H399.735V259.21C399.735 263.26 402.315 265.42 405.345 265.42C407.325 265.42 408.825 264.7 409.635 263.59V265H414.135V250H409.635ZM426.225 249.58C424.245 249.58 422.745 250.3 421.935 251.41V250H417.435V265H421.935V256.81C421.935 254.68 423.075 253.72 424.725 253.72C426.165 253.72 427.335 254.59 427.335 256.45V265H431.835V255.79C431.835 251.74 429.255 249.58 426.225 249.58ZM443.715 254.32V250H440.625V245.8L436.125 247.15V250H433.725V254.32H436.125V259.63C436.125 263.83 437.835 265.6 443.715 265V260.92C441.735 261.04 440.625 260.92 440.625 259.63V254.32H443.715ZM450.696 248.8C451.926 248.8 452.946 247.78 452.946 246.55C452.946 245.32 451.926 244.3 450.696 244.3C449.466 244.3 448.446 245.32 448.446 246.55C448.446 247.78 449.466 248.8 450.696 248.8ZM456.396 248.8C457.626 248.8 458.646 247.78 458.646 246.55C458.646 245.32 457.626 244.3 456.396 244.3C455.166 244.3 454.146 245.32 454.146 246.55C454.146 247.78 455.166 248.8 456.396 248.8ZM456.246 250V258.19C456.246 260.32 455.106 261.28 453.456 261.28C452.016 261.28 450.846 260.41 450.846 258.55V250H446.346V259.21C446.346 263.26 448.926 265.42 451.956 265.42C453.936 265.42 455.436 264.7 456.246 263.59V265H460.746V250H456.246ZM464.046 265H468.546V243.1H464.046V265ZM475.859 259.3H486.509C486.629 258.73 486.689 258.13 486.689 257.5C486.689 252.97 483.449 249.58 479.069 249.58C474.329 249.58 471.089 253.03 471.089 257.5C471.089 261.97 474.269 265.42 479.399 265.42C482.249 265.42 484.469 264.37 485.939 262.33L482.339 260.26C481.739 260.92 480.689 261.4 479.459 261.4C477.809 261.4 476.429 260.86 475.859 259.3ZM475.769 255.94C476.189 254.41 477.329 253.57 479.039 253.57C480.389 253.57 481.739 254.2 482.219 255.94H475.769ZM498.032 249.58C496.052 249.58 494.552 250.3 493.742 251.41V250H489.242V265H493.742V256.81C493.742 254.68 494.882 253.72 496.532 253.72C497.972 253.72 499.142 254.59 499.142 256.45V265H503.642V255.79C503.642 251.74 501.062 249.58 498.032 249.58ZM523.532 249.58C521.402 249.58 520.022 250.36 519.182 251.56C518.342 250.3 517.022 249.58 515.252 249.58C513.242 249.58 511.922 250.36 511.232 251.38V250H506.732V265H511.232V256.54C511.232 254.77 512.072 253.72 513.572 253.72C515.012 253.72 515.732 254.68 515.732 256.18V265H520.232V256.54C520.232 254.77 521.072 253.72 522.572 253.72C524.012 253.72 524.732 254.68 524.732 256.18V265H529.232V255.79C529.232 252.04 526.982 249.58 523.532 249.58ZM536.328 259.3H546.978C547.098 258.73 547.158 258.13 547.158 257.5C547.158 252.97 543.918 249.58 539.538 249.58C534.798 249.58 531.558 253.03 531.558 257.5C531.558 261.97 534.738 265.42 539.868 265.42C542.718 265.42 544.938 264.37 546.408 262.33L542.808 260.26C542.208 260.92 541.158 261.4 539.928 261.4C538.278 261.4 536.898 260.86 536.328 259.3ZM536.238 255.94C536.658 254.41 537.798 253.57 539.508 253.57C540.858 253.57 542.208 254.2 542.688 255.94H536.238Z" fill="black"/>
<rect x="593" y="242" width="89" height="26" rx="5" fill="#FF0049"/>
<path d="M713.9 244H698.3V248.62H703.7V265H708.5V248.62H713.9V244ZM715.851 265H720.351V250H715.851V265ZM738.044 265L732.434 257.5L737.894 250H732.644L728.144 256.57V244H723.644V265H728.144V258.37L732.944 265H738.044ZM739.699 265H744.199V243.1H739.699V265ZM758.382 250V251.41C757.392 250.27 755.922 249.58 753.912 249.58C749.982 249.58 746.742 253.03 746.742 257.5C746.742 261.97 749.982 265.42 753.912 265.42C755.922 265.42 757.392 264.73 758.382 263.59V265H762.882V250H758.382ZM754.812 261.16C752.742 261.16 751.242 259.75 751.242 257.5C751.242 255.25 752.742 253.84 754.812 253.84C756.882 253.84 758.382 255.25 758.382 257.5C758.382 259.75 756.882 261.16 754.812 261.16ZM774.973 249.58C772.993 249.58 771.493 250.3 770.683 251.41V250H766.183V265H770.683V256.81C770.683 254.68 771.823 253.72 773.473 253.72C774.913 253.72 776.083 254.59 776.083 256.45V265H780.583V255.79C780.583 251.74 778.003 249.58 774.973 249.58ZM800.473 249.58C798.343 249.58 796.963 250.36 796.123 251.56C795.283 250.3 793.963 249.58 792.193 249.58C790.183 249.58 788.863 250.36 788.173 251.38V250H783.673V265H788.173V256.54C788.173 254.77 789.013 253.72 790.513 253.72C791.953 253.72 792.673 254.68 792.673 256.18V265H797.173V256.54C797.173 254.77 798.013 253.72 799.513 253.72C800.953 253.72 801.673 254.68 801.673 256.18V265H806.173V255.79C806.173 252.04 803.923 249.58 800.473 249.58ZM820.14 250V251.41C819.15 250.27 817.68 249.58 815.67 249.58C811.74 249.58 808.5 253.03 808.5 257.5C808.5 261.97 811.74 265.42 815.67 265.42C817.68 265.42 819.15 264.73 820.14 263.59V265H824.64V250H820.14ZM816.57 261.16C814.5 261.16 813 259.75 813 257.5C813 255.25 814.5 253.84 816.57 253.84C818.64 253.84 820.14 255.25 820.14 257.5C820.14 259.75 818.64 261.16 816.57 261.16ZM827.941 265H832.441V243.1H827.941V265ZM846.624 250V251.41C845.634 250.27 844.164 249.58 842.154 249.58C838.224 249.58 834.984 253.03 834.984 257.5C834.984 261.97 838.224 265.42 842.154 265.42C844.164 265.42 845.634 264.73 846.624 263.59V265H851.124V250H846.624ZM843.054 261.16C840.984 261.16 839.484 259.75 839.484 257.5C839.484 255.25 840.984 253.84 843.054 253.84C845.124 253.84 846.624 255.25 846.624 257.5C846.624 259.75 845.124 261.16 843.054 261.16ZM858.925 252.67V250H854.425V265H858.925V258.22C858.925 255.25 861.565 254.5 863.425 254.8V249.7C861.535 249.7 859.525 250.66 858.925 252.67Z" fill="black"/>
<defs>
<linearGradient id="paint0_linear_147_641" x1="31.2567" y1="-6.92942" x2="1206.59" y2="1285.05" gradientUnits="userSpaceOnUse">
<stop stop-color="#FFBD44"/>
<stop offset="1" stop-color="#FFE144"/>
</linearGradient>
<linearGradient id="paint1_linear_147_641" x1="1115.09" y1="581.765" x2="912.664" y2="1160.37" gradientUnits="userSpaceOnUse">
<stop stop-color="#00CA4E"/>
<stop offset="1" stop-color="#00CA75"/>
</linearGradient>
<linearGradient id="paint2_linear_147_641" x1="631.751" y1="659.5" x2="631.751" y2="1095" gradientUnits="userSpaceOnUse">
<stop stop-color="#00CA4E"/>
<stop offset="1" stop-color="#FF0049" stop-opacity="0"/>
</linearGradient>
<linearGradient id="paint3_linear_147_641" x1="634.25" y1="716.893" x2="645" y2="1107" gradientUnits="userSpaceOnUse">
<stop stop-color="#FF0049"/>
<stop offset="1" stop-color="#FF0049" stop-opacity="0"/>
</linearGradient>
<linearGradient id="paint4_linear_147_641" x1="176.666" y1="147.753" x2="1066.56" y2="1125.97" gradientUnits="userSpaceOnUse">
<stop stop-color="#FFBD44"/>
<stop offset="1" stop-color="#FFE144"/>
</linearGradient>
<linearGradient id="paint5_linear_147_641" x1="240.945" y1="242.903" x2="255.379" y2="290.565" gradientUnits="userSpaceOnUse">
<stop stop-color="#00CA4E"/>
<stop offset="1" stop-color="#00CA75"/>
</linearGradient>
</defs>
</svg>
