<svg width="840" height="378" viewBox="0 0 840 378" fill="none" xmlns="http://www.w3.org/2000/svg">
<rect width="840" height="378" rx="63" fill="url(#paint0_linear_143_546)"/>
<path d="M426.2 80H415L401.7 101.77L388.4 80H377.2V129H388.4V100.51L401.07 121.3H402.33L415 100.51V129H426.2V80ZM443.652 115.7H468.502C468.782 114.37 468.922 112.97 468.922 111.5C468.922 100.93 461.362 93.02 451.142 93.02C440.082 93.02 432.522 101.07 432.522 111.5C432.522 121.93 439.942 129.98 451.912 129.98C458.562 129.98 463.742 127.53 467.172 122.77L458.772 117.94C457.372 119.48 454.922 120.6 452.052 120.6C448.202 120.6 444.982 119.34 443.652 115.7ZM443.442 107.86C444.422 104.29 447.082 102.33 451.072 102.33C454.222 102.33 457.372 103.8 458.492 107.86H443.442ZM483.916 115.7H508.766C509.046 114.37 509.186 112.97 509.186 111.5C509.186 100.93 501.626 93.02 491.406 93.02C480.346 93.02 472.786 101.07 472.786 111.5C472.786 121.93 480.206 129.98 492.176 129.98C498.826 129.98 504.006 127.53 507.436 122.77L499.036 117.94C497.636 119.48 495.186 120.6 492.316 120.6C488.466 120.6 485.246 119.34 483.916 115.7ZM483.706 107.86C484.686 104.29 487.346 102.33 491.336 102.33C494.486 102.33 497.636 103.8 498.756 107.86H483.706ZM534.626 104.08V94H527.416V84.2L516.916 87.35V94H511.316V104.08H516.916V116.47C516.916 126.27 520.906 130.4 534.626 129V119.48C530.006 119.76 527.416 119.48 527.416 116.47V104.08H534.626ZM545.821 90.92C549.251 90.92 552.121 88.05 552.121 84.62C552.121 81.19 549.251 78.32 545.821 78.32C542.391 78.32 539.521 81.19 539.521 84.62C539.521 88.05 542.391 90.92 545.821 90.92ZM540.571 129H551.071V94H540.571V129ZM579.264 93.02C574.644 93.02 571.144 94.7 569.254 97.29V94H558.754V129H569.254V109.89C569.254 104.92 571.914 102.68 575.764 102.68C579.124 102.68 581.854 104.71 581.854 109.05V129H592.354V107.51C592.354 98.06 586.334 93.02 579.264 93.02ZM625.255 94V97.57C622.945 94.7 619.585 93.02 615.035 93.02C605.095 93.02 597.815 101.14 597.815 110.8C597.815 120.46 605.095 128.58 615.035 128.58C619.585 128.58 622.945 126.9 625.255 124.03V127.25C625.255 132.22 622.245 134.74 617.345 134.74C612.725 134.74 610.695 132.78 609.365 130.33L600.405 135.51C603.625 141.25 609.715 143.98 616.995 143.98C626.305 143.98 635.475 139.01 635.475 127.25V94H625.255ZM616.785 118.92C611.815 118.92 608.315 115.63 608.315 110.8C608.315 105.97 611.815 102.68 616.785 102.68C621.755 102.68 625.255 105.97 625.255 110.8C625.255 115.63 621.755 118.92 616.785 118.92Z" fill="white"/>
<rect x="373" y="179" width="292" height="48" fill="white"/>
<rect x="373" y="258" width="373" height="48" fill="white"/>
<path d="M71.9973 141.439V212.77C72.0608 228.899 86.4012 241.874 103.895 241.821H217.063C220.27 241.821 222.873 239.44 222.873 236.551V165.219C222.789 149.101 208.448 136.115 190.975 136.179H77.7864C74.5902 136.179 71.9973 138.549 71.9973 141.439V141.439ZM230.07 169.273L276.806 137.914C280.859 134.824 284.003 135.597 284.003 141.185V236.816C284.003 243.176 280.161 242.404 276.806 240.086L230.07 208.791V169.273Z" fill="white"/>
<defs>
<linearGradient id="paint0_linear_143_546" x1="-0.514906" y1="13.1219" x2="289.306" y2="634.416" gradientUnits="userSpaceOnUse">
<stop stop-color="#2D8CFF"/>
<stop offset="1" stop-color="#0068E7"/>
</linearGradient>
</defs>
</svg>
