<svg width="840" height="378" viewBox="0 0 840 378" fill="none" xmlns="http://www.w3.org/2000/svg">
<rect width="840" height="378" rx="63" fill="url(#paint0_linear_143_557)"/>
<path d="M395.75 80H377.2V129H388.4V113.6H395.75C405.41 113.6 412.9 106.11 412.9 96.8C412.9 87.49 405.41 80 395.75 80ZM395.75 103.1H388.4V90.5H395.75C399.18 90.5 401.7 93.23 401.7 96.8C401.7 100.37 399.18 103.1 395.75 103.1ZM432.82 129.98C443.11 129.98 451.37 121.93 451.37 111.5C451.37 101.07 443.11 93.02 432.82 93.02C422.53 93.02 414.27 101.07 414.27 111.5C414.27 121.93 422.53 129.98 432.82 129.98ZM432.82 119.76C428.27 119.76 424.77 116.47 424.77 111.5C424.77 106.53 428.27 103.24 432.82 103.24C437.37 103.24 440.87 106.53 440.87 111.5C440.87 116.47 437.37 119.76 432.82 119.76ZM482.719 80V97.29C480.409 94.63 476.979 93.02 472.289 93.02C463.119 93.02 455.559 101.07 455.559 111.5C455.559 121.93 463.119 129.98 472.289 129.98C476.979 129.98 480.409 128.37 482.719 125.71V129H493.219V80H482.719ZM474.389 120.04C469.559 120.04 466.059 116.75 466.059 111.5C466.059 106.25 469.559 102.96 474.389 102.96C479.219 102.96 482.719 106.25 482.719 111.5C482.719 116.75 479.219 120.04 474.389 120.04ZM517.722 129.98C524.582 129.98 530.532 126.41 533.542 120.95L524.372 115.7C523.252 118.15 520.662 119.62 517.582 119.62C513.032 119.62 509.672 116.33 509.672 111.5C509.672 106.67 513.032 103.38 517.582 103.38C520.662 103.38 523.182 104.85 524.372 107.3L533.542 101.98C530.532 96.59 524.512 93.02 517.722 93.02C507.082 93.02 499.172 101.07 499.172 111.5C499.172 121.93 507.082 129.98 517.722 129.98ZM562.494 94V97.29C560.184 94.63 556.754 93.02 552.064 93.02C542.894 93.02 535.334 101.07 535.334 111.5C535.334 121.93 542.894 129.98 552.064 129.98C556.754 129.98 560.184 128.37 562.494 125.71V129H572.994V94H562.494ZM554.164 120.04C549.334 120.04 545.834 116.75 545.834 111.5C545.834 106.25 549.334 102.96 554.164 102.96C558.994 102.96 562.494 106.25 562.494 111.5C562.494 116.75 558.994 120.04 554.164 120.04ZM590.296 104.22C590.296 102.96 591.416 102.26 593.236 102.26C595.546 102.26 596.946 103.52 597.926 105.34L606.886 100.51C603.946 95.54 598.906 93.02 593.236 93.02C585.956 93.02 579.516 96.87 579.516 104.5C579.516 116.61 596.736 114.58 596.736 118.43C596.736 119.83 595.476 120.6 592.956 120.6C589.876 120.6 587.916 119.13 587.006 116.47L577.906 121.65C580.636 127.32 585.956 129.98 592.956 129.98C600.516 129.98 607.516 126.55 607.516 118.5C607.516 105.55 590.296 108.21 590.296 104.22ZM632.243 104.08V94H625.033V84.2L614.533 87.35V94H608.933V104.08H614.533V116.47C614.533 126.27 618.523 130.4 632.243 129V119.48C627.623 119.76 625.033 119.48 625.033 116.47V104.08H632.243Z" fill="white"/>
<line x1="371.5" y1="251.5" x2="729.5" y2="251.5" stroke="white" stroke-width="9" stroke-linecap="round"/>
<circle cx="456.5" cy="251.5" r="22.5" fill="white"/>
<path d="M139.75 130.25C139.75 120.901 143.464 111.935 150.074 105.324C156.685 98.7138 165.651 95 175 95C184.349 95 193.315 98.7138 199.926 105.324C206.536 111.935 210.25 120.901 210.25 130.25V189C210.25 198.349 206.536 207.315 199.926 213.926C193.315 220.536 184.349 224.25 175 224.25C165.651 224.25 156.685 220.536 150.074 213.926C143.464 207.315 139.75 198.349 139.75 189V130.25Z" fill="white"/>
<path d="M122.125 171.375C123.683 171.375 125.177 171.994 126.279 173.096C127.381 174.198 128 175.692 128 177.25V189C128 201.465 132.952 213.42 141.766 222.234C150.58 231.048 162.535 236 175 236C187.465 236 199.42 231.048 208.234 222.234C217.048 213.42 222 201.465 222 189V177.25C222 175.692 222.619 174.198 223.721 173.096C224.823 171.994 226.317 171.375 227.875 171.375C229.433 171.375 230.927 171.994 232.029 173.096C233.131 174.198 233.75 175.692 233.75 177.25V189C233.75 203.564 228.34 217.61 218.57 228.411C208.8 239.213 195.366 246 180.875 247.456V271.25H216.125C217.683 271.25 219.177 271.869 220.279 272.971C221.381 274.073 222 275.567 222 277.125C222 278.683 221.381 280.177 220.279 281.279C219.177 282.381 217.683 283 216.125 283H133.875C132.317 283 130.823 282.381 129.721 281.279C128.619 280.177 128 278.683 128 277.125C128 275.567 128.619 274.073 129.721 272.971C130.823 271.869 132.317 271.25 133.875 271.25H169.125V247.456C154.634 246 141.2 239.213 131.43 228.411C121.66 217.61 116.25 203.564 116.25 189V177.25C116.25 175.692 116.869 174.198 117.971 173.096C119.073 171.994 120.567 171.375 122.125 171.375Z" fill="white"/>
<defs>
<linearGradient id="paint0_linear_143_557" x1="16.4097" y1="25.5" x2="860.232" y2="291.922" gradientUnits="userSpaceOnUse">
<stop stop-color="#FF0049"/>
<stop offset="1" stop-color="#FF007A"/>
</linearGradient>
</defs>
</svg>
