<svg xmlns="http://www.w3.org/2000/svg" width="840" height="378" fill="none" viewBox="0 0 840 378"><rect width="840" height="378" fill="url(#paint0_linear_143_572)" rx="63"/><path fill="#fff" d="M394.35 129.98C404.99 129.98 412.55 124.38 412.55 114.93C412.55 104.57 404.22 101.98 396.8 99.74C389.17 97.43 387.98 95.89 387.98 93.65C387.98 91.69 389.73 89.94 393.23 89.94C397.71 89.94 400.02 92.11 401.7 95.61L411.15 90.08C407.58 82.87 401.28 79.02 393.23 79.02C384.76 79.02 376.78 84.48 376.78 93.93C376.78 103.31 383.92 106.81 391.2 108.84C398.55 110.87 401.35 112.06 401.35 115.07C401.35 116.96 400.02 119.06 394.7 119.06C389.17 119.06 386.16 116.33 384.41 112.27L374.75 117.87C377.48 125.08 384.06 129.98 394.35 129.98ZM437.282 104.08V94H430.072V84.2L419.572 87.35V94H413.972V104.08H419.572V116.47C419.572 126.27 423.562 130.4 437.282 129V119.48C432.662 119.76 430.072 119.48 430.072 116.47V104.08H437.282ZM459.343 129.98C469.633 129.98 477.893 121.93 477.893 111.5C477.893 101.07 469.633 93.02 459.343 93.02C449.053 93.02 440.793 101.07 440.793 111.5C440.793 121.93 449.053 129.98 459.343 129.98ZM459.343 119.76C454.793 119.76 451.293 116.47 451.293 111.5C451.293 106.53 454.793 103.24 459.343 103.24C463.893 103.24 467.393 106.53 467.393 111.5C467.393 116.47 463.893 119.76 459.343 119.76ZM494.332 100.23V94H483.832V129H494.332V113.18C494.332 106.25 500.492 104.5 504.832 105.2V93.3C500.422 93.3 495.732 95.54 494.332 100.23ZM518.095 115.7H542.945C543.225 114.37 543.365 112.97 543.365 111.5C543.365 100.93 535.805 93.02 525.585 93.02C514.525 93.02 506.965 101.07 506.965 111.5C506.965 121.93 514.385 129.98 526.355 129.98C533.005 129.98 538.185 127.53 541.615 122.77L533.215 117.94C531.815 119.48 529.365 120.6 526.495 120.6C522.645 120.6 519.425 119.34 518.095 115.7ZM517.885 107.86C518.865 104.29 521.525 102.33 525.515 102.33C528.665 102.33 531.815 103.8 532.935 107.86H517.885Z"/><rect width="119" height="119" x="373" y="197" fill="#fff" rx="18"/><rect width="119" height="119" x="509" y="197" fill="#fff" rx="18"/><rect width="119" height="119" x="645" y="197" fill="#fff" rx="18"/><path fill="#fff" d="M125.917 259.5C114.458 259.5 105.187 268.875 105.187 280.333C105.187 291.792 114.458 301.167 125.917 301.167C137.375 301.167 146.75 291.792 146.75 280.333C146.75 268.875 137.375 259.5 125.917 259.5ZM63.4166 92.8333V113.667H84.25L121.75 192.729L107.687 218.25C106.021 221.167 105.083 224.604 105.083 228.25C105.083 239.708 114.458 249.083 125.917 249.083H250.917V228.25H130.292C128.833 228.25 127.687 227.104 127.687 225.646L128 224.396L137.375 207.417H214.979C222.792 207.417 229.667 203.146 233.208 196.687L270.5 129.083C271.359 127.494 271.792 125.708 271.755 123.901C271.718 122.094 271.213 120.328 270.29 118.775C269.366 117.221 268.055 115.934 266.485 115.039C264.916 114.144 263.14 113.671 261.333 113.667H107.271L97.4791 92.8333H63.4166ZM230.083 259.5C218.625 259.5 209.354 268.875 209.354 280.333C209.354 291.792 218.625 301.167 230.083 301.167C241.542 301.167 250.917 291.792 250.917 280.333C250.917 268.875 241.542 259.5 230.083 259.5Z"/><defs><linearGradient id="paint0_linear_143_572" x1="20.838" x2="269.199" y1="-2.079" y2="604.61" gradientUnits="userSpaceOnUse"><stop stop-color="#FFBD44"/><stop offset="1" stop-color="#FFE144"/></linearGradient></defs></svg>